<?xml version="1.0" encoding="UTF-8"?>
<svg width="752pt" height="752pt" version="1.1" viewBox="0 0 752 752" xmlns="http://www.w3.org/2000/svg">
 <g>
  <path d="m301.18 461.25c4.2617-1.8945 8.5234-3.7891 12.785-5.6836 2.3672-0.94531 5.2109 0 6.1562 2.3672 0.94531 2.3672 0 5.2109-2.3672 6.1562-4.2617 1.8945-8.5234 3.7891-12.785 5.2109-0.47266 0.47266-1.4219 0.47266-1.8945 0.47266-1.8945 0-3.3164-0.94531-4.2617-2.8398-0.94922-1.8945 0-4.7383 2.3672-5.6836z"/>
  <path d="m331.48 448.93c4.2617-1.8945 8.5234-3.3164 12.785-5.2109 2.3672-0.94531 5.2109 0.47266 6.1562 2.8398 0.94531 2.3672-0.47266 5.2109-2.8398 6.1562-4.2617 1.4219-8.5234 3.3164-12.785 5.2109-0.47266 0-0.94531 0.47266-1.8945 0.47266-1.8945 0-3.7891-0.94531-4.2617-2.8398-0.94922-2.8398 0.47266-5.6836 2.8398-6.6289z"/>
  <path d="m272.29 475.93c3.7891-2.3672 8.0508-4.2617 12.312-6.6289 2.3672-0.94531 5.2109-0.47266 6.1562 1.8945 0.94531 2.3672 0.47266 5.2109-1.8945 6.1562-4.2617 2.3672-8.0508 4.2617-11.84 6.6289-0.94922 0.94922-1.8945 0.94922-2.3672 0.94922-1.4219 0-3.3164-0.94531-4.2617-2.3672-1.4219-2.3711-0.47656-5.2109 1.8945-6.6328z"/>
  <path d="m256.18 486.35c1.8945-1.4219 5.2109-0.94531 6.6289 0.94531 1.4219 1.8945 0.94531 5.2109-0.94531 6.6289-3.7891 2.8398-7.1055 5.6836-10.418 8.5234-0.94531 0.94531-1.8945 1.4219-3.3164 1.4219-1.4219 0-2.3672-0.47266-3.3164-1.4219-1.8945-1.8945-1.4219-4.7344 0.47266-6.6289 3.3203-3.3125 7.1094-6.6289 10.895-9.4688z"/>
  <path d="m224.46 521.86c1.8945-4.2617 4.7344-8.0508 7.5781-11.84 1.4219-1.8945 4.7344-2.3672 6.6289-0.94531 1.8945 1.4219 2.3672 4.7344 0.94531 6.6289-2.3672 3.3164-4.7344 7.1055-6.6289 10.891-0.94531 1.4219-2.3672 2.3672-4.2617 2.3672-0.94531 0-1.4219 0-2.3672-0.47266-1.8945-1.8906-2.8438-4.7344-1.8945-6.6289z"/>
  <path d="m391.16 425.25c4.2617-1.8945 8.5234-3.7891 12.312-5.6836 2.3672-0.94531 5.2109 0 6.1562 2.3672s0 5.2109-2.3672 6.1562c-4.2617 1.8945-8.5234 3.7891-12.785 5.6836-0.47266 0.47266-1.4219 0.47266-1.8945 0.47266-1.8945 0-3.7891-0.94531-4.2617-2.8398-0.47656-2.3672 0.47266-5.2109 2.8398-6.1562z"/>
  <path d="m420.04 411.52c4.2617-2.3672 8.0508-4.2617 11.84-6.6289 2.3672-1.4219 5.2109-0.47266 6.6289 1.4219 1.4219 2.3672 0.47266 5.2109-1.4219 6.6289-3.7891 2.3672-8.0508 4.7344-12.312 7.1055-0.94531 0.47266-1.4219 0.47266-2.3672 0.47266-1.8945 0-3.3164-0.94531-4.2617-2.3672-1.418-2.3711-0.47266-5.6836 1.8945-6.6328z"/>
  <path d="m361.32 437.09c4.2617-1.8945 8.5234-3.3164 12.785-5.2109 2.3672-0.94531 5.2109 0 6.1562 2.8398 0.94531 2.3672 0 5.2109-2.8398 6.1562-4.2617 1.8945-8.5234 3.3164-12.785 5.2109-0.47266 0-0.94531 0.47266-1.8945 0.47266-1.8945 0-3.7891-0.94531-4.2617-2.8398-0.47656-2.8398 0.47266-5.6836 2.8398-6.6289z"/>
  <path d="m451.77 390.21c1.8945-1.4219 3.3164-2.8398 5.2109-4.2617 1.8945-1.8945 4.7344-1.8945 6.6289 0 1.8945 1.8945 1.8945 4.7344 0 6.6289-1.8945 1.4219-3.3164 3.3164-5.2109 4.7344-1.8945 1.4219-3.7891 2.8398-5.6836 4.2617-0.94531 0.47266-1.8945 0.94531-2.8398 0.94531-1.4219 0-2.8398-0.47266-3.7891-1.8945-1.4219-1.8945-1.4219-5.2109 0.94531-6.6289 1.4258-0.94141 2.8438-2.3633 4.7383-3.7852z"/>
  <path d="m476.88 362.27c1.4219-2.3672 4.2617-2.8398 6.6289-1.4219 2.3672 1.4219 2.8398 4.2617 1.4219 6.6289-2.8398 3.7891-5.6836 8.0508-8.5234 11.367-0.94531 0.94531-2.3672 1.8945-3.7891 1.8945-0.94531 0-1.8945-0.47266-2.8398-0.94531-1.8945-1.4219-2.3672-4.7344-0.47266-6.6289 2.3633-3.7891 4.7305-7.1055 7.5742-10.895z"/>
  <path d="m495.82 317.28c0.94531-4.2617 1.8945-8.5234 2.8398-13.262 0.47266-2.3672 2.8398-4.2617 5.6836-3.7891 2.3672 0.47266 4.2617 2.8398 3.7891 5.6836-0.94531 4.7344-1.8945 9.4727-2.8398 13.734-0.47266 2.3672-2.3672 3.7891-4.7344 3.7891h-0.94531c-2.8438-0.94531-4.2656-3.3164-3.793-6.1562z"/>
  <path d="m485.4 346.64c1.8945-3.7891 3.7891-8.0508 5.2109-12.312 0.94531-2.3672 3.7891-3.7891 6.1562-2.8398 2.3672 0.94531 3.7891 3.7891 2.8398 6.1562-1.8945 4.2617-3.7891 8.9961-5.6836 13.262-0.94531 1.8945-2.3672 2.8398-4.2617 2.8398-0.47266 0-1.4219 0-1.8945-0.47266-2.3672-1.4258-3.3125-4.2656-2.3672-6.6328z"/>
  <path d="m505.29 291.7c-2.8398 0-4.7344-2.3672-4.2617-5.2109 0.47266-4.2617 0.47266-8.9961 0.47266-13.734 0-2.3672 2.3672-4.7344 4.7344-4.7344 2.8398 0 4.7344 2.3672 4.7344 4.7344 0 4.7344-0.47266 9.4727-0.94531 14.207 0.47656 2.8438-1.8945 4.7383-4.7344 4.7383 0.47266 0 0.47266 0 0 0z"/>
  <path d="m223.98 535.12c2.3672 0.47266 4.2617 3.3164 3.3164 5.6836-0.94531 3.7891-1.4219 8.0508-1.8945 12.312 0 2.3672-2.3672 4.2617-4.7344 4.2617h-0.47266c-2.8398 0-4.7344-2.3672-4.2617-5.2109 0.47266-4.7344 0.94531-9.4727 1.8945-13.734 0.94531-2.3672 3.7852-3.7852 6.1523-3.3125z"/>
  <path d="m489.19 251.92c-0.94531 0.94531-2.3672 1.4219-3.3164 1.4219-0.94531 0-2.3672-0.47266-3.3164-1.4219-1.8945-1.8945-1.8945-4.7344 0-6.6289l17.051-17.051-17.051-17.051c-1.8945-1.8945-1.8945-4.7344 0-6.6289 1.8945-1.8945 4.7344-1.8945 6.6289 0l17.051 17.051 17.051-17.051c1.8945-1.8945 4.7344-1.8945 6.6289 0 1.8945 1.8945 1.8945 4.7344 0 6.6289l-16.574 17.055 17.051 17.051c1.8945 1.8945 1.8945 4.7344 0 6.6289-0.94531 0.94531-2.3672 1.4219-3.3164 1.4219-0.94531 0-2.3672-0.47266-3.3164-1.4219l-17.051-17.051z"/>
 </g>
</svg>
